<?xml version="1.0" encoding="utf-8"?>
<!-- Generator: Adobe Illustrator 18.0.0, SVG Export Plug-In . SVG Version: 6.00 Build 0)  -->
<!DOCTYPE svg PUBLIC "-//W3C//DTD SVG 1.1//EN" "http://www.w3.org/Graphics/SVG/1.1/DTD/svg11.dtd">
<svg version="1.1" xmlns="http://www.w3.org/2000/svg" xmlns:xlink="http://www.w3.org/1999/xlink" x="0px" y="0px"
	 viewBox="0 0 2250 1800" enable-background="new 0 0 2250 1800" xml:space="preserve">
<g id="scene">
	
		<polyline fill="none" stroke="#120706" stroke-width="5" stroke-linecap="round" stroke-linejoin="round" stroke-miterlimit="10" points="
		2250,1190.5 2059,1190.5 1910.4,1114.5 535,1114.5 	"/>
	
		<line fill="none" stroke="#120706" stroke-width="5" stroke-linecap="round" stroke-linejoin="round" stroke-miterlimit="10" x1="1910.5" y1="1115" x2="1910.5" y2="105"/>
	
		<line fill="none" stroke="#120706" stroke-width="5" stroke-linecap="round" stroke-linejoin="round" stroke-miterlimit="10" x1="1910.5" y1="105" x2="2040.1" y2="0"/>
	
		<polyline fill="none" stroke="#120706" stroke-width="5" stroke-linecap="round" stroke-linejoin="round" stroke-miterlimit="10" points="
		535.5,2 535.5,1207.5 0,1207.5 	"/>
	
		<line fill="none" stroke="#120706" stroke-width="5" stroke-linecap="round" stroke-linejoin="round" stroke-miterlimit="10" x1="1910" y1="105.5" x2="535" y2="105.5"/>
	
		<line fill="none" stroke="#120706" stroke-width="5" stroke-linecap="round" stroke-linejoin="round" stroke-miterlimit="10" x1="2058.5" y1="1191" x2="2058.5" y2="0"/>
	
		<line fill="none" stroke="#120706" stroke-width="5" stroke-linecap="round" stroke-linejoin="round" stroke-miterlimit="10" x1="2102.5" y1="1191" x2="2102.5" y2="0"/>
	
		<rect x="624.5" y="188.5" fill="none" stroke="#120706" stroke-width="5" stroke-linecap="round" stroke-linejoin="round" stroke-miterlimit="10" width="1264" height="102"/>
	
		<polyline fill="none" stroke="#120706" stroke-width="3" stroke-linecap="round" stroke-linejoin="round" stroke-miterlimit="10" points="
		624,204.5 1872.5,204.5 1872.5,291 	"/>
	
		<rect x="624.5" y="320.5" fill="none" stroke="#120706" stroke-width="5" stroke-linecap="round" stroke-linejoin="round" stroke-miterlimit="10" width="212" height="747"/>
	
		<polyline fill="none" stroke="#120706" stroke-width="3" stroke-linecap="round" stroke-linejoin="round" stroke-miterlimit="10" points="
		640.5,320 640.5,1051.5 837,1051.5 	"/>
	
		<rect x="1686.5" y="319.5" fill="none" stroke="#120706" stroke-width="5" stroke-linecap="round" stroke-linejoin="round" stroke-miterlimit="10" width="202" height="747"/>
	
		<polyline fill="none" stroke="#120706" stroke-width="3" stroke-linecap="round" stroke-linejoin="round" stroke-miterlimit="10" points="
		1872.5,319 1872.5,1050.5 1686,1050.5 	"/>
	
		<rect x="858.5" y="322.5" fill="none" stroke="#120706" stroke-width="5" stroke-linecap="round" stroke-linejoin="round" stroke-miterlimit="10" width="260" height="174"/>
	
		<rect x="1134.5" y="322.5" fill="none" stroke="#120706" stroke-width="5" stroke-linecap="round" stroke-linejoin="round" stroke-miterlimit="10" width="260" height="174"/>
	
		<rect x="1410.5" y="322.5" fill="none" stroke="#120706" stroke-width="5" stroke-linecap="round" stroke-linejoin="round" stroke-miterlimit="10" width="260" height="174"/>
	
		<rect x="858.5" y="512.5" fill="none" stroke="#120706" stroke-width="5" stroke-linecap="round" stroke-linejoin="round" stroke-miterlimit="10" width="260" height="174"/>
	
		<rect x="1134.5" y="512.5" fill="none" stroke="#120706" stroke-width="5" stroke-linecap="round" stroke-linejoin="round" stroke-miterlimit="10" width="260" height="174"/>
	
		<rect x="1410.5" y="512.5" fill="none" stroke="#120706" stroke-width="5" stroke-linecap="round" stroke-linejoin="round" stroke-miterlimit="10" width="260" height="174"/>
	
		<rect x="858.5" y="702.5" fill="none" stroke="#120706" stroke-width="5" stroke-linecap="round" stroke-linejoin="round" stroke-miterlimit="10" width="260" height="174"/>
	
		<rect x="1134.5" y="702.5" fill="none" stroke="#120706" stroke-width="5" stroke-linecap="round" stroke-linejoin="round" stroke-miterlimit="10" width="260" height="174"/>
	
		<rect x="1410.5" y="702.5" fill="none" stroke="#120706" stroke-width="5" stroke-linecap="round" stroke-linejoin="round" stroke-miterlimit="10" width="260" height="174"/>
	
		<rect x="858.5" y="892.5" fill="none" stroke="#120706" stroke-width="5" stroke-linecap="round" stroke-linejoin="round" stroke-miterlimit="10" width="812" height="174"/>
	
		<polygon fill="none" stroke="#120706" stroke-width="5" stroke-linecap="round" stroke-linejoin="round" stroke-miterlimit="10" points="
		2008.5,792.7 1957.5,785.5 1957.5,626.5 2008.5,622.3 	"/>
	
		<polygon fill="none" stroke="#120706" stroke-width="5" stroke-linecap="round" stroke-linejoin="round" stroke-miterlimit="10" points="
		2008.5,569.5 1962.5,577.5 1962.5,419.7 2008.5,401.5 	"/>
	
		<line fill="none" stroke="#120706" stroke-width="5" stroke-linecap="round" stroke-linejoin="round" stroke-miterlimit="10" x1="535" y1="1170.5" x2="0" y2="1170.5"/>
</g>
<g id="Rug">
	<path fill="none" stroke="#120706" stroke-width="5" stroke-linecap="round" stroke-linejoin="round" stroke-miterlimit="10" d="
		M2250,1579.7L493.2,1569c-10.3-0.1-15.6-12.4-8.5-19.9l222.1-233.8c14.5-15.3,34.6-23.9,55.7-23.9h1392.6c8.1,0,16,2.7,22.5,7.6
		l72.4,54.9"/>
</g>
<g id="decorative">
	
		<path fill="#FFFFFF" stroke="#000000" stroke-width="3" stroke-linecap="round" stroke-linejoin="round" stroke-miterlimit="10" d="
		M1026.7,618.4c6.5-14.4,12-35.3,11.1-47.4s-22.9-19-30.8-23.7c-7.9-4.7-0.2-8.3-0.2-8.3l-12.8,0l-12.5,0c0,0,7.8,3.6-0.1,8.3
		c-7.9,4.7-29.8,11.6-30.8,23.7c-0.9,12.1,4.6,33,11.1,47.4c6.5,14.4,12.1,27.4,9.3,38.5c-2.8,11.2-10.2,28.6-10.2,28.6H994h33.7
		c0,0-7.5-17.4-10.3-28.6C1014.7,645.7,1020.2,632.8,1026.7,618.4z"/>
	
		<path fill="#FFFFFF" stroke="#000000" stroke-width="3" stroke-linecap="round" stroke-linejoin="round" stroke-miterlimit="10" d="
		M1562.7,618.4c6.5-14.4,12-35.3,11.1-47.4s-22.9-19-30.8-23.7c-7.9-4.7-0.2-8.3-0.2-8.3l-12.8,0l-12.5,0c0,0,7.8,3.6-0.1,8.3
		c-7.9,4.7-29.8,11.6-30.8,23.7s4.6,33,11.1,47.4c6.5,14.4,12.1,27.4,9.3,38.5c-2.8,11.2-10.2,28.6-10.2,28.6h33.3h33.7
		c0,0-7.5-17.4-10.3-28.6C1550.7,645.7,1556.2,632.8,1562.7,618.4z"/>
	
		<path fill="#FFFFFF" stroke="#000000" stroke-width="3" stroke-linecap="round" stroke-linejoin="round" stroke-miterlimit="10" d="
		M1294.7,792.7c-2.3-19.3-20.8-25.6-26.9-29s2.3-9.2,2.3-9.2H1259h-11c0,0,8.3,5.8,2.3,9.2s-24.6,10-26.9,29.3
		c-2.3,19.3-6.1,49,0,60.8s16.2,21.8,16.2,21.8h19.4h19.6c0,0,10.1-10.2,16.2-21.9S1297,812,1294.7,792.7z"/>
	
		<path fill="#FFFFFF" stroke="#000000" stroke-width="3" stroke-linecap="round" stroke-linejoin="round" stroke-miterlimit="10" d="
		M1223.6,428.2c2.3-11.1,20.7-14.6,26.7-16.5c6-2-2.3-5.1-2.3-5.1h11.1h10.9c0,0-8.3,3.2-2.3,5.1c6,2,24.4,5.7,26.7,16.8
		c2.3,11.1,6,28,0,34.8c-6,6.7-16.1,12.3-16.1,12.3h-19.3h-19.5c0,0-10.1-5.7-16.1-12.5C1217.6,456.3,1221.4,439.3,1223.6,428.2z"/>
	
		<line fill="#FFFFFF" stroke="#000000" stroke-linecap="round" stroke-linejoin="round" stroke-miterlimit="10" x1="1240" y1="874.5" x2="1259" y2="874.5"/>
	
		<line fill="#FFFFFF" stroke="#000000" stroke-linecap="round" stroke-linejoin="round" stroke-miterlimit="10" x1="1259" y1="874.5" x2="1240" y2="874.5"/>
	
		<rect x="1212.5" y="475.5" fill="#FFFFFF" stroke="#000000" stroke-width="3" stroke-linecap="round" stroke-linejoin="round" stroke-miterlimit="10" width="97" height="8"/>
	
		<rect x="1207.5" y="483.5" fill="#FFFFFF" stroke="#000000" stroke-width="3" stroke-linecap="round" stroke-linejoin="round" stroke-miterlimit="10" width="109" height="13"/>
	
		<rect x="894.2" y="397.5" transform="matrix(0.988 -0.1543 0.1543 0.988 -57.3815 143.9247)" fill="#FFFFFF" stroke="#000000" stroke-width="3" stroke-linecap="round" stroke-linejoin="round" stroke-miterlimit="10" width="8" height="88"/>
	
		<rect x="885.6" y="389.8" transform="matrix(0.988 -0.1544 0.1544 0.988 -57.0159 142.6457)" fill="#FFFFFF" stroke="#000000" stroke-width="3" stroke-linecap="round" stroke-linejoin="round" stroke-miterlimit="10" width="8" height="97"/>
	
		<rect x="878.9" y="393.9" transform="matrix(0.988 -0.1544 0.1544 0.988 -57.4863 141.4948)" fill="#FFFFFF" stroke="#000000" stroke-width="3" stroke-linecap="round" stroke-linejoin="round" stroke-miterlimit="10" width="7" height="94"/>
	
		<rect x="868.6" y="388.3" transform="matrix(0.988 -0.1543 0.1543 0.988 -57.4065 140.1056)" fill="#FFFFFF" stroke="#000000" stroke-width="3" stroke-linecap="round" stroke-linejoin="round" stroke-miterlimit="10" width="10" height="103"/>
	
		<rect x="867.5" y="483.5" fill="#FFFFFF" stroke="#000000" stroke-width="3" stroke-linecap="round" stroke-linejoin="round" stroke-miterlimit="10" width="100" height="11"/>
	
		<rect x="1627.6" y="393.6" transform="matrix(0.9889 0.1486 -0.1486 0.9889 83.4097 -237.5774)" fill="#FFFFFF" stroke="#000000" stroke-width="3" stroke-linecap="round" stroke-linejoin="round" stroke-miterlimit="10" width="9" height="92"/>
	
		<rect x="1636.1" y="398.5" transform="matrix(0.9889 0.1486 -0.1486 0.9889 84.1184 -238.5551)" fill="#FFFFFF" stroke="#000000" stroke-width="3" stroke-linecap="round" stroke-linejoin="round" stroke-miterlimit="10" width="4" height="90"/>
	
		<rect x="1640.5" y="389.4" transform="matrix(0.9889 0.1486 -0.1486 0.9889 83.751 -239.3772)" fill="#FFFFFF" stroke="#000000" stroke-width="3" stroke-linecap="round" stroke-linejoin="round" stroke-miterlimit="10" width="7" height="103"/>
	
		<rect x="1647" y="396.4" transform="matrix(0.9889 0.1486 -0.1486 0.9889 84.4214 -240.3371)" fill="#FFFFFF" stroke="#000000" stroke-width="3" stroke-linecap="round" stroke-linejoin="round" stroke-miterlimit="10" width="8" height="97"/>
	
		<rect x="1654.6" y="401.5" transform="matrix(0.9889 0.1486 -0.1486 0.9889 84.9586 -241.3578)" fill="#FFFFFF" stroke="#000000" stroke-width="3" stroke-linecap="round" stroke-linejoin="round" stroke-miterlimit="10" width="7" height="93"/>
	
		<rect x="1561.5" y="482.5" fill="#FFFFFF" stroke="#000000" stroke-width="3" stroke-linecap="round" stroke-linejoin="round" stroke-miterlimit="10" width="102" height="11"/>
	
		<rect x="1243.5" y="661.5" fill="#FFFFFF" stroke="#000000" stroke-width="3" stroke-linecap="round" stroke-linejoin="round" stroke-miterlimit="10" width="101" height="9"/>
	
		<rect x="1228.5" y="670.5" fill="#FFFFFF" stroke="#000000" stroke-width="3" stroke-linecap="round" stroke-linejoin="round" stroke-miterlimit="10" width="124" height="13"/>
	
		<rect x="947.5" y="806.5" fill="#FFFFFF" stroke="#000000" stroke-width="3" stroke-linecap="round" stroke-linejoin="round" stroke-miterlimit="10" width="101" height="70"/>
	
		<rect x="1474.5" y="803.5" fill="#FFFFFF" stroke="#000000" stroke-width="3" stroke-linecap="round" stroke-linejoin="round" stroke-miterlimit="10" width="111" height="71"/>
	
		<line fill="none" stroke="#000000" stroke-width="3" stroke-linecap="round" stroke-linejoin="round" stroke-miterlimit="10" x1="1474" y1="818.5" x2="1585" y2="818.5"/>
	
		<line fill="none" stroke="#000000" stroke-width="3" stroke-linecap="round" stroke-linejoin="round" stroke-miterlimit="10" x1="947" y1="817.5" x2="1048" y2="817.5"/>
</g>
<g id="Frame4">
	
		<polyline fill="none" stroke="#120706" stroke-width="5" stroke-linecap="round" stroke-linejoin="round" stroke-miterlimit="10" points="
		-1,770.5 417.5,770.5 417.5,396.5 -1,396.5 	"/>
</g>
<g id="Frame3">
	
		<rect x="985.5" y="365.5" fill="#FFFFFF" stroke="#000000" stroke-width="3" stroke-linecap="round" stroke-linejoin="round" stroke-miterlimit="10" width="105" height="129"/>
	
		<rect x="1000.5" y="381.5" fill="#FFFFFF" stroke="#000000" stroke-width="3" stroke-linecap="round" stroke-linejoin="round" stroke-miterlimit="10" width="75" height="100"/>
</g>
<g id="Frame2">
	
		<rect x="1171.5" y="554.5" fill="#FFFFFF" stroke="#000000" stroke-width="3" stroke-linecap="round" stroke-linejoin="round" stroke-miterlimit="10" width="105" height="129"/>
	
		<rect x="1186.5" y="570.5" fill="#FFFFFF" stroke="#000000" stroke-width="3" stroke-linecap="round" stroke-linejoin="round" stroke-miterlimit="10" width="75" height="100"/>
</g>
<g id="Frame1">
	
		<rect x="1431.5" y="362.5" fill="#FFFFFF" stroke="#000000" stroke-width="3" stroke-linecap="round" stroke-linejoin="round" stroke-miterlimit="10" width="106" height="131"/>
	
		<rect x="1447.5" y="381.5" fill="#FFFFFF" stroke="#000000" stroke-width="3" stroke-linecap="round" stroke-linejoin="round" stroke-miterlimit="10" width="75" height="98"/>
</g>
<g id="Lamp">
	
		<rect x="763.5" y="694.5" fill="#FFFFFF" stroke="#120706" stroke-width="5" stroke-linecap="round" stroke-linejoin="round" stroke-miterlimit="10" width="15" height="561"/>
	
		<rect x="696.5" y="1233.5" fill="#FFFFFF" stroke="#120706" stroke-width="5" stroke-linecap="round" stroke-linejoin="round" stroke-miterlimit="10" width="125" height="22"/>
	
		<polygon fill="#FFFFFF" stroke="#120706" stroke-width="5" stroke-linecap="round" stroke-linejoin="round" stroke-miterlimit="10" points="
		873.5,707.5 666.5,707.5 679.5,591.5 859.5,591.5 	"/>
</g>
<g id="Sofa1">
	<path fill="#FFFFFF" d="M710,1079.6c1.4-3.2,2.2-7.7,2.5-14c1.1-17.8-1.4-29.7-7.7-36.4c-5.8-6.1-13.7-7.1-20.8-7.1
		c-0.6,0-1.2-0.1-1.7-0.1H462.2l-47.7-127.8c-6.3-16.9-16.8-30-31.1-38.8c-12.7-7.8-28.3-11.9-44.9-11.9c-0.7,0-1.4,0-2.1,0
		c-17.1,0.4-59.5,8.5-61.3,8.8l-0.4,0.1c-5.8,2.2-9.4,6-10.7,11.4c-7.9-1.3-16.6-1.8-25.8-1.8c-5.6,0-11.8,0.2-19.9,0.5
		c-22.1,1-88.8,15.8-91.6,16.4l-0.2,0.1l-0.2,0.1c-7.4,3.3-11.3,7.7-13,12.6l-11.3,5.1c-7.2,3.2-12.7,9.1-15.6,16.5
		s-2.6,15.5,0.6,22.7l3.7,8.2l-44.9,9.4l0,0.2c-0.7,0.1-1.5,0.3-2.2,0.6l-0.5,0.2c-9.3,3.4-14.6,12.9-12.7,22.7l7,177.8
		c0.2,6.1,2.9,11.4,7.3,15c-6.5,1.4-11.6,7.2-11.6,14.2v122.9c0,6.1,4,11.4,9.4,13.5c-2.8,2.6-4.4,6.4-4.4,10.5v97
		c0,8,6.5,14.5,14.5,14.5h502c3.9,0,7.5-1.6,10.1-4.1c0,0,0.1,0,0.1-0.1c9.9-8.9,32.1-29.8,34.4-37.9c3.9-3.9,30.2-30.5,56.2-57.1
		c45.6-46.7,55.1-57.3,57-60.6c16.5-16,16.6-19.3,16.6-20.9v-143.8C729,1103,721.6,1089,710,1079.6z"/>
	<path d="M710,1079.6c1.4-3.2,2.2-7.7,2.5-14c1.1-17.8-1.4-29.7-7.7-36.4c-5.8-6.1-13.7-7.1-20.8-7.1c-0.6,0-1.2-0.1-1.7-0.1H462.2
		l-47.7-127.8c-6.3-16.9-16.8-30-31.1-38.8c-12.7-7.8-28.3-11.9-44.9-11.9c-0.7,0-1.4,0-2.1,0c-17.1,0.4-59.5,8.5-61.3,8.8l-0.4,0.1
		c-5.8,2.2-9.4,6-10.7,11.4c-7.9-1.3-16.6-1.8-25.8-1.8c-5.6,0-11.8,0.2-19.9,0.5c-22.1,1-88.8,15.8-91.6,16.4l-0.2,0.1l-0.2,0.1
		c-7.4,3.3-11.3,7.7-13,12.6l-11.3,5.1c-7.2,3.2-12.7,9.1-15.6,16.5s-2.6,15.5,0.6,22.7l3.7,8.2l-44.9,9.4l0,0.2
		c-0.7,0.1-1.5,0.3-2.2,0.6l-0.5,0.2c-9.3,3.4-14.6,12.9-12.7,22.7l7,177.8c0.2,6.1,2.9,11.4,7.3,15c-6.5,1.4-11.6,7.2-11.6,14.2
		v122.9c0,6.1,4,11.4,9.4,13.5c-2.8,2.6-4.4,6.4-4.4,10.5v97c0,8,6.5,14.5,14.5,14.5h502c3.9,0,7.5-1.6,10.1-4.1c0,0,0.1,0,0.1-0.1
		c9.9-8.9,32.1-29.8,34.4-37.9c3.9-3.9,30.2-30.5,56.2-57.1c45.6-46.7,55.1-57.3,57-60.6c16.5-16,16.6-19.3,16.6-20.9v-143.8
		C729,1103,721.6,1089,710,1079.6z M682.4,1027c0.6,0,1.1,0.1,1.7,0.1c6.3,0,12.7,0.7,17.1,5.4c5.3,5.6,7.4,16.3,6.4,32.7
		c-0.8,15.8-4.9,16.8-10.2,18.1c-5.4,1.3-12,2.8-15.4,16.7c-0.3-0.2-0.7-0.1-1-0.2c-0.2,1.5-0.9,3.2-2.2,4.2h-107
		c-5.4-8-14.4-13-24.6-13H431.9c-3.8-7-6-15.9-6-25.5c0-21,10.9-38.5,24.2-38.5H682.4z M707,1196.8c-2.9,3.4-64,53.4-108,88.3v-67
		c0-23.1-14.5-42.9-35.1-50.3c7.8-5.4,13.1-14.3,13.1-24.5v-23c0-4.2-1-8.3-2.5-11.3h104.8c1.7,0,3.4-1,4.7-2.2
		c8.3,4.1,17.8,9.8,20.4,12.4C721.1,1135.6,722.5,1177.6,707,1196.8z M157.6,1168c-9.6,0-17.6-7.9-17.6-17.5V1113
		c0-9.6,8-17,17.6-17h389.5c7.2,0,13.7,3,18.2,8h-0.7c0,0,0.1-0.2,0.1-0.2c0.3,0,0.5,0,0.8,0.1c1.1,1.2,2,2.6,2.8,4
		c0,0.3,0,0.1-0.1,1.1h0.6c1.9,3,3.1,7,3.1,11.3v23c0,13.6-11.2,24.7-24.8,24.7H157.6z M276.2,857.2c3.3-0.6,44.1-8.3,60.2-8.7
		c0.7,0,1.3,0,2,0c34.1,0,60.1,17.2,71.3,47.5l47.1,126H450c-16.1,0-29.2,19.7-29.2,43.5c0,9.4,2,17.5,5.5,25.5h-28.6l-86.4-191.8
		c-9.2-20.5-23.6-30.2-42.4-34.3C269.8,861.3,272.2,858.8,276.2,857.2z M127.9,883.9c4.6-1,69.5-15.3,90.5-16.2
		c8.1-0.4,14.1-0.5,19.7-0.5c32.1,0,56,6,68.6,34.1l85.5,189.7H238L155,905.8c-4.8-10.7-15.5-17.7-27.2-17.7c-2.5,0-4.9,0.3-7.3,0.9
		C122.3,887,124.8,885.3,127.9,883.9z M90.8,915.2c2.4-6.2,7-11.1,13-13.8l14-6.3c3.2-1.4,6.6-2.2,10-2.2c9.8,0,18.7,6,22.6,14.8
		l82,183.2h-71L91.3,934.3C88.7,928.3,88.5,921.4,90.8,915.2z M156,1090.6c-11.7,0.8-21,10.6-21,22.4v37.5c0,8.4,4.7,15.5,11.5,19.5
		h-8.3L62.3,963.3c-1-2.8-2.9-5.2-5.3-6.8l35.5-7.5L156,1090.6z M42.3,1155.1l-7-177.8c0-0.3,0-0.6-0.1-0.8
		c-1.4-7.3,2.6-14.4,9.5-17l0.5-0.2c1.1-0.4,2.2-0.6,3.3-0.6c4.1,0,7.7,2.5,9.1,6.3l74.9,204.1L58,1170h-0.2
		C49.4,1170,42.6,1163.5,42.3,1155.1z M47.9,1317c-5.2,0-9.9-4.3-9.9-9.5v-122.9c0-5.2,4.6-9.6,9.9-9.6h467.6
		c26.7,0,48.5,21.8,48.5,48.6v83.9c0,5.2-4.3,9.5-9.5,9.5h-502H47.9z M52.5,1438c-5.2,0-9.5-4.3-9.5-9.5v-97c0-5.2,4.3-9.5,9.5-9.5
		h502c5.2,0,9.5,4.3,9.5,9.5v97c0,5.2-4.3,9.5-9.5,9.5H52.5z M569,1428v-96.5c0-5-2.5-9.4-6.4-12c3.8-2.6,6.4-7,6.4-12v-83.9
		c0-23.4-15.1-43.3-36.1-50.6h14.2c3.7,0,7.1-0.7,10.3-1.9c21,5.3,36.5,24.4,36.5,47v181.6C594,1402.8,582,1415.6,569,1428z
		 M599,1393.7v-102.2c14-10.8,92.8-74.7,109.1-88.9l-0.4,78.1c-0.5,0.4-0.9,0.9-1.4,1.3c0.1,0.3,0,0.5,0,0.8
		C696.3,1294.9,640,1352.7,599,1393.7z M712.8,1275.7l0.5-78.1c0-0.2,0-0.4-0.1-0.6c14.8-22.2,12.5-64.1-5.3-81.5
		c-2.5-2.5-12.4-8.7-21.4-13.2c0.1-0.3,0.2-0.6,0.3-0.9c2.6-11,6.8-12,11.7-13.1c3.4-0.8,6.4-1.8,8.8-4.4
		c10.1,8.5,16.5,20.9,16.5,34.8l0,143.7C723.6,1264.2,719.1,1269.3,712.8,1275.7z"/>
</g>
<g id="Sofa2">
	<g>
		<path fill="#FFFFFF" d="M1774.2,1023.7c-13.6-13.4-41.6-31.4-59.2-36.2v-98c0-7.7-6.3-14.6-14-14.6h-4c-0.1-5-0.3-8.7-0.7-12.3
			c-2.6-23.2-23-36.3-56.1-36.3l-324.1,0.1c-0.5,0-1.1,0-1.7,0c-1,0-2.1-0.1-3.3-0.1c-15.2,0-24.7,7-28.3,20.8
			c-4-20.8-16.6-20.8-21.3-20.8c-1,0-1.9-0.3-2.7-0.2c-0.6,0-1.2-0.2-1.7-0.2H934.3l-1.4,0.3c-33.1,0-53.5,13.1-56.1,36.3
			c-0.4,3.6-0.6,7.4-0.7,12.4H864c-7.7,0-14,6.9-14,14.6v99c-15.1,4.9-36.2,22.3-50.2,36.2c-2.2,1.7-3.9,4-4.8,7
			c-1.4,3.8-0.7,7.3,0.3,9.8c3,7.2,11.4,12.8,17.4,14.2c-3.5,3.3-5.7,8.2-5.7,12.8v185c0,7.7,6.3,13.4,14,13.4h83
			c5.1,0,9.6-2.7,12-6.8c2.4,4.1,6.9,6.8,12,6.8h721c5.1,0,9.6-2.7,12-6.8c2.4,4.1,6.9,6.8,12,6.8h83c7.7,0,14-5.7,14-13.4v-185
			c0-4.2-1.8-8.4-4.9-11.6c-0.8-0.8-1.8-1.6-3-2.4c5.9-1.7,13.8-7.1,16.6-14c1.1-2.6,1.7-6,0.3-9.8
			C1778.1,1027.8,1776.4,1025.5,1774.2,1023.7z"/>
		<path fill="#120706" d="M1779.1,1030.7c-0.9-3-2.7-5.3-4.9-7c-13.6-13.4-41.6-31.4-59.2-36.2v-98c0-7.7-6.3-13.5-14-13.5h-4
			c-0.1-5-0.3-9.2-0.7-12.8c-2.6-23.2-23-36.6-56.1-36.6l-324.1-0.1c-0.5,0-1.1-0.1-1.7-0.1c-1,0-2.1-0.1-3.3-0.1
			c-15.2,0-24.7,7-28.3,20.8c-4-20.8-16.6-20.8-21.3-20.8c-1,0-1.9,0.3-2.7,0.3c-0.6,0-1.2,0.3-1.7,0.3H934.3l-1.4-0.2
			c-33.1,0-53.5,13.4-56.1,36.6c-0.4,3.6-0.6,7.7-0.7,12.7H864c-7.7,0-14,5.8-14,13.5v99c-15.1,4.9-36.2,22.3-50.2,36.2
			c-2.2,1.7-3.9,4-4.8,7c-1.4,3.8-0.7,7.3,0.3,9.8c3,7.2,11.4,12.8,17.4,14.2c-3.5,3.3-5.7,8.2-5.7,12.8v185c0,7.7,6.3,14.5,14,14.5
			h83c5.1,0,9.6-2.7,12-6.8c2.4,4.1,6.9,6.8,12,6.8h721c5.1,0,9.6-2.7,12-6.8c2.4,4.1,6.9,6.8,12,6.8h83c7.7,0,14-6.8,14-14.5v-185
			c0-4.2-1.8-8.4-4.9-11.6c-0.8-0.8-1.8-1.6-3-2.4c5.9-1.7,13.8-7.1,16.6-14C1779.8,1038,1780.4,1034.5,1779.1,1030.7z M1653,1085
			c0.6,0,1.2-0.2,1.8-0.3c3.9,0.2,4.2,1.1,4.2,5.3v64.5c0,3.3-0.4,14.5-6,14.5h-4H932c-5.5,0-14-9-14-14.5v-58.9
			c0-1.2,0.1-2.1,0.4-3.2c1.6-4,8.5-7.4,13.6-7.4h718.8C1651.5,1085,1652.3,1085,1653,1085z M1657.3,1171.3
			c3.7-2.4,5.7-8.2,5.7-16.8v-67.1c0-2.9-0.4-5.6-1-8.2c2.2-3.7,2.9-7.5,3.6-11c1.3-6.4,2.1-9.5,7.9-10.2c5.8-0.7,20.9-1.4,37.5-2
			v182.4c0,5.5-4.5,10.5-10,10.5h-38v-66.5C1663,1177.9,1660.8,1173.8,1657.3,1171.3z M914,1182.5v66.5h-50c-5.5,0-10-5-10-10.5
			v-181.7c20,0.6,39.7,1.4,46.6,2.3c5.8,0.7,6.6,3.8,7.9,10.2c0.7,3.7,1.5,7.8,4.1,11.8c1.2,1.8,2.7,3.1,4.4,3.9
			c-1,2-1.8,3.9-2.3,5.9c-0.4,1-0.6,2-0.6,3c0,0,0,0.1,0,0.1c-0.1,0.6-0.1,1.1-0.1,1.7v58.9c0,5,4.3,11.1,9.5,14.8
			C918,1171.2,914,1176.4,914,1182.5z M934,1081c0.6-1,1-1,1.1-1.1c0.2-0.2,24.9-19.8,33.6-27.1c1.1-0.9,2.1-2,3-3.1
			c0.4-0.1,0.7-0.1,0.9-0.1l322.8-0.1c0.1,0,0.2,0,0.3,0c0.1,0,0.1,0,0.2,0l287.3,0c3.2,0,11.4,0.1,21.2,1.3c0.3,0.3,0.6,0.6,1,0.9
			c8.7,7.3,33.3,27,33.5,27.1c0.1,0.1,1.1,1.1,2.6,2.1H934z M1284.6,1046h-3.7c0.6-1,1.2-2.1,1.6-3.4
			C1283.1,1043.9,1283.7,1045,1284.6,1046z M1608,1048.7c-3.7-3.1-5.5-6.7-5.7-11c-0.4-8.3,5.6-18.8,17.1-30.3
			c11.8-11.8,45.9-18.2,71.9-18.2c8.5,0,15.9,0.7,21.3,1.9c13.5,3.1,35.2,16,50,27.8c-3-0.6-5.3-0.6-5.8-0.6
			c-2.9-0.2-49.9-4-64.9-1.9l-1.5,0.2c-15.5,2.2-41.5,6-48,24.3c-3.4,9.5-5.9,23-4.6,31.8C1630.5,1066.9,1614.6,1054.2,1608,1048.7z
			 M1701,880c5.5,0,10,4,10,9.5v97.1c-5.4-1-12.2-1.5-19.8-1.5c-0.6,0-1.2,0.2-1.8,0.2c2.9-26.1,7.7-75.3,7.6-105.3H1701z
			 M1285,1031.5V862.2c0-31.8,19.6-31.8,26.1-31.8c1.2,0,2.3,0.3,3.2,0.3c0.7,0,1.4,0.3,1.9,0.3h322.7l1.4-0.2
			c18.1,0,48.9,4.2,52.1,32.8c2.9,25.8-3.5,90.5-6.9,121.7c-26.3,0.9-57,7.4-68.8,19.3c-12.4,12.4-18.7,24.1-18.3,33.6
			c0.1,2.8,0.8,4.9,2,7.9h-301.1c-0.5,0-1.1,0-1.7,0c-0.4,0-0.8,0-1.3,0h-0.9c-2.8,0-5.6-0.6-7.4-2.5
			C1285.8,1041.4,1284.8,1037.2,1285,1031.5z M880.9,863.4c3.2-28.6,34-32.9,52.1-32.9l324.1,0c0.5,0,1.2,0,1.9-0.1
			c0.8,0,1.6-0.1,2.5-0.1c5.1,0,18.6,0,18.6,31.8v169.4c0,3.3-0.4,14.5-6,14.5H974.3c0.9-3,1.5-4.5,1.6-6.9
			c0.4-9.4-5.9-21.1-18.3-33.5c-7.6-7.6-22.7-12.4-34.1-15c-11.1-2.6-23.6-4.3-35.6-5C884.4,954.7,878,889.3,880.9,863.4z M864,880
			h12.1c-0.1,31,4.8,79.7,7.6,105.7c-2.2-0.1-4.4-0.2-6.5-0.2c-9.2,0-17.1,0.6-23.3,2v-97.9C854,884,858.5,880,864,880z
			 M852.5,991.9c6.1-1.7,14.7-2.6,24.8-2.6c28.1,0,65.7,7.3,77.4,19c11.6,11.6,17.5,22.3,17.1,30.6c-0.1,2.5-0.8,4.1-2.1,7.1h-0.7
			c0,0,0,0,0,0.1c-0.1,0.6-0.3,1-0.6,1.4c-0.4,0.5-0.8,0.8-1.3,1.3c-0.9,0.6-2,1-3,0.9c-0.1,0.1-0.1-0.6-0.2,0.4h2.3
			c-0.1,0-0.1-0.1-0.2-0.1c-6.6,5.5-22.5,18-29.8,23.8c1.2-8.8-1.2-22.3-4.6-31.9c-6.5-18.3-32.4-22-48-24.3l-1.5-0.2
			c-14.9-2.2-62,1.6-64.9,1.9c-0.6,0-3.3,0.1-6.7,0.8C824.6,1007.3,841.2,995.1,852.5,991.9z M815.4,1052.1c-4,0-13.4-5-16.3-12.1
			c-1.7-4.2-0.7-8.2,3.1-12c0.1-0.1,0.2-0.2,0.2-0.2c5.6-4.5,14.9-4.6,15.1-4.6c0,0,0.1,0,0.1,0c0.5,0,49.4-4,64-1.9l1.6,0.2
			c14.6,2.1,39.1,5.6,44.8,21.6c5.1,14.4,6.3,32.1,2.5,35c-2.4,1.6-6.1,3.6-9.3,3.6c-2.2,0-3.9-0.9-5.1-2.9
			c-2.1-3.3-2.8-6.9-3.5-10.3c-1.2-6-2.4-12.3-11.3-13.4c-11.3-1.4-54.4-2.7-80.1-3c0,0,0,0,0,0c0,0,0,0,0,0
			C819,1052.1,817.1,1052.1,815.4,1052.1z M904,1264h-83c-5.5,0-10-5-10-10.5v-185c0-5.6,4.6-12.3,9.9-12.4
			c8.3,0.1,18.6,0.3,29.1,0.6v181.8c0,7.7,6.3,14.5,14,14.5h50v0.5C914,1259,909.5,1264,904,1264z M1649,1264H928
			c-5.5,0-10-5-10-10.5v-71c0-5.5,4.5-9.5,10-9.5h4h717c5.5,0,10,4,10,9.5v71C1659,1259,1654.5,1264,1649,1264z M1766,1068.5v185
			c0,5.5-4.5,10.5-10,10.5h-83c-5.5,0-10-5-10-10.5v-0.5h38c7.7,0,14-6.8,14-14.5V1056c11.9-0.4,24.3-0.6,34.5-0.8
			C1762.5,1055.2,1766,1063.9,1766,1068.5z M1775,1039c-2.9,7.1-12.3,12.1-16.3,12.1c-24.4,0.1-73.6,1.5-85.7,3
			c-8.9,1.1-10.1,7.3-11.3,13.4c-0.7,3.5-1.4,7.1-3.5,10.3c-1,1.5-2.1,2.6-3.6,3c-0.5,0-1,0.2-1.5,0.2h-1.9c-2.8-1-5.6-2.4-7.5-3.6
			c-3.8-3-2.6-20.8,2.5-35.1c5.6-16,30.1-19.6,44.8-21.7l1.6-0.3c14.6-2.1,63.5,1.8,64,1.9c0,0,0.1,0,0.1,0c0.1,0,9.5,0.2,15,4.6
			c0.1,0.1,0.2,0.2,0.3,0.3C1775.7,1030.8,1776.8,1034.9,1775,1039z"/>
	</g>
</g>
</svg>
